<?xml version="1.0" encoding="UTF-8"?>
<svg width="22px" height="22px" viewBox="0 0 22 22" version="1.1" xmlns="http://www.w3.org/2000/svg" xmlns:xlink="http://www.w3.org/1999/xlink">
    <!-- Generator: Sketch 50 (54983) - http://www.bohemiancoding.com/sketch -->
    <title>expirience-icon</title>
    <desc>Created with Sketch.</desc>
    <defs>
        <path d="M6.35619737,6.64738462 C6.13619737,6.52535043 5.99522368,6.24151282 6.00014474,5.93135043 C6.00535526,5.62109402 6.15494079,5.34534188 6.37819737,5.23534188 L16.7886118,0.0914786325 C16.9227829,0.0248205128 17.0708487,0.0248205128 17.2053816,0.0914786325 L27.6161579,5.2354359 C27.8394145,5.3454359 27.9890724,5.62062393 27.9939934,5.93144444 C27.9989868,6.24207692 27.8581579,6.52488034 27.638375,6.64738462 L17.2278882,12.4362051 C17.1540724,12.4768205 17.0759868,12.4976923 16.9973947,12.4976923 C16.9188026,12.4976923 16.8403553,12.4778547 16.7669013,12.4362051 L6.35619737,6.64738462 Z M6.35619737,9.94164957 C6.05840132,9.77608547 5.92003289,9.32884615 6.04747368,8.94187179 C6.17491447,8.55564957 6.51917105,8.3754188 6.81703947,8.54126496 L16.9970329,14.2022222 L27.1766645,8.54126496 C27.4754737,8.37494872 27.8189342,8.55611966 27.9460132,8.94187179 C28.0734539,9.32837607 27.9356645,9.77608547 27.6376513,9.94164957 L16.9970329,15.8587094 L6.35619737,9.94164957 Z M6.35619737,12.9875214 C6.05840132,12.8219573 5.92003289,12.374812 6.04747368,11.9881197 C6.17491447,11.6018034 6.51917105,11.4218547 6.81703947,11.5875128 L16.9970329,17.2483761 L27.1766645,11.5874188 C27.4754737,11.4208205 27.8189342,11.6022735 27.9460132,11.9880256 C28.0734539,12.3747179 27.9356645,12.8219573 27.6376513,12.9875214 L16.9970329,18.9047692 L6.35619737,12.9875214 Z M6.35619737,16.0337692 C6.05840132,15.8681111 5.92003289,15.4208718 6.04747368,15.0341795 C6.17491447,14.6479573 6.51917105,14.4680085 6.81703947,14.6335726 L16.9970329,20.2945299 L27.1766645,14.6335726 C27.4754737,14.4681026 27.8189342,14.6484274 27.9460132,15.0341795 C28.0734539,15.4208718 27.9356645,15.8681111 27.6376513,16.0337692 L16.9970329,21.9510171 L6.35619737,16.0337692 Z" id="path-1"></path>
    </defs>
    <g id="Page-1" stroke="none" stroke-width="1" fill="none" fill-rule="evenodd">
        <g id="Oleg-1st" transform="translate(-60.000000, -174.000000)">
            <g id="Expirience" transform="translate(54.000000, 174.000000)">
                <g id="expirience-icon">
                    <use fill="#03A9C5" xlink:href="#path-1"></use>
                    <use fill="#23AFA5" xlink:href="#path-1"></use>
                </g>
            </g>
        </g>
    </g>
</svg>