<?xml version="1.0" encoding="UTF-8"?>
<svg width="22px" height="22px" viewBox="0 0 22 22" version="1.1" xmlns="http://www.w3.org/2000/svg" xmlns:xlink="http://www.w3.org/1999/xlink">
    <!-- Generator: Sketch 50 (54983) - http://www.bohemiancoding.com/sketch -->
    <title>skills-icon</title>
    <desc>Created with Sketch.</desc>
    <defs></defs>
    <g id="Page-1" stroke="none" stroke-width="1" fill="none" fill-rule="evenodd">
        <g id="Oleg-2nd-" transform="translate(-41.000000, -176.000000)" fill="#23AFA5">
            <g id="Professional-skills" transform="translate(41.000000, 176.000000)">
                <path d="M0,13.4775972 L0,10.1719444 C0,9.8736713 0.226016701,9.62301389 0.503290188,9.62301389 L5.76767432,9.62301389 L3.47361169,14.0264769 L0.503290188,14.0264769 C0.226016701,14.0264769 0,13.7819815 0,13.4775972 L0,13.4775972 Z M3.75175783,20.2369954 L2.07075574,21.5093287 C1.84382046,21.6797778 1.68458455,21.566162 1.71572443,21.2729306 L1.94174113,19.107713 C1.97283507,18.8043472 2.19614196,18.6856389 2.4331357,18.8317454 L3.73159499,19.6596991 C3.96771608,19.804787 3.97782046,20.0685833 3.75175783,20.2369954 L3.75175783,20.2369954 Z M4.15258038,19.0214954 L2.85412109,18.2027083 C2.61712735,18.0464676 2.53293946,17.7116296 2.67109395,17.4498704 L8.69592484,5.87705556 C8.82953236,5.60816667 9.13789979,5.52093056 9.37581211,5.66703704 L10.6797829,6.48786111 C10.9167766,6.64206481 10.995499,6.98301389 10.86281,7.24477315 L4.83797912,18.8246667 C4.69886013,19.0874444 4.39508559,19.1787546 4.15258038,19.0214954 L4.15258038,19.0214954 Z M8.73891441,14.0264769 L11.032977,9.62301389 L12.3515992,9.62301389 L14.2155825,14.0264769 L8.73891441,14.0264769 L8.73891441,14.0264769 Z M16.209499,15.337412 C15.6833361,15.0502917 13.0882088,8.44606481 12.4339499,6.72527778 C11.7586096,5.00041667 9.7573904,0.411277778 10.4043466,0.0561712963 C10.8655198,-0.197490741 12.5245678,3.41662037 13.7708977,5.58183796 C15.0107975,7.74909259 17.6095992,13.3396389 17.9316994,13.9778426 C18.2501253,14.6180833 17.6278789,15.1456759 17.271929,15.3100648 C16.925119,15.4703287 16.7283591,15.6204583 16.209499,15.337412 L16.209499,15.337412 Z M17.9096994,18.3781991 L17.1300543,17.0155741 C16.9616785,16.7294722 17.0477035,16.3763519 17.3075699,16.2322824 L18.0533653,15.8061343 C18.3141503,15.6590093 18.6481461,15.7665648 18.7872651,16.0729861 L19.4076743,17.3838704 C19.5522589,17.683162 19.452501,18.0667361 19.1981461,18.2331111 L18.6619248,18.5871991 C18.418501,18.7546435 18.0753194,18.6582407 17.9096994,18.3781991 L17.9096994,18.3781991 Z M20.7985887,21.964912 C20.6292944,21.376412 19.3829645,21.3449907 18.8257077,20.4703889 C18.2565553,19.6059213 18.7241127,19.1574676 18.9190355,18.9484676 C21.1893069,17.5391435 20.7985887,21.964912 20.7985887,21.964912 L20.7985887,21.964912 Z M21.9616493,13.4775972 C21.9616493,13.7840185 21.7420167,14.0265278 21.4638706,14.0265278 L18.8284635,14.0265278 C18.7927766,13.8581157 18.7479499,13.6896528 18.674739,13.5273519 C18.599691,13.3883241 18.4267683,13.0291944 18.1861002,12.5239074 C17.8402088,11.7852778 17.3323257,10.7310602 16.7961044,9.62612037 L21.4657077,9.62612037 C21.7420626,9.62306481 21.9616952,9.87163426 21.9616952,10.1719954 L21.9616952,13.4775972 L21.9616493,13.4775972 Z" id="skills-icon"></path>
            </g>
        </g>
    </g>
</svg>