<?xml version="1.0" encoding="UTF-8"?>
<svg width="82px" height="83px" viewBox="0 0 82 83" version="1.1" xmlns="http://www.w3.org/2000/svg" xmlns:xlink="http://www.w3.org/1999/xlink">
    <!-- Generator: Sketch 50 (54983) - http://www.bohemiancoding.com/sketch -->
    <title>Logo</title>
    <desc>Created with Sketch.</desc>
    <defs>
        <linearGradient x1="9.62362127%" y1="-98.4090715%" x2="76.7885053%" y2="89.0366121%" id="linearGradient-1">
            <stop stop-color="#242662" offset="0%"></stop>
            <stop stop-color="#23AFA5" offset="100%"></stop>
        </linearGradient>
    </defs>
    <g id="Page-1" stroke="none" stroke-width="1" fill="none" fill-rule="evenodd">
        <g id="Oleg-1st" transform="translate(-45.000000, -46.000000)">
            <g id="Head" transform="translate(45.000000, 46.000000)">
                <g id="Logo">
                    <path d="M4.20052485,56.4503861 C1.51397208,51.1744437 0,45.2065482 0,38.8865951 C0,19.0524075 14.9114192,2.68570733 34.1817856,0.292726427 L14.205856,26.1573489 L16.5395658,29.1790118 C9.31187811,38.4804701 5.3823666,48.0482177 4.20052485,56.4503861 Z M11.2499947,66.1967634 C11.3121984,59.109988 15.9706156,47.9370281 23.2399136,37.8545513 L37.1451646,55.8589233 L40.4866895,51.5323521 L26.5815062,33.5280678 C28.6425224,31.0373832 30.8580404,28.6695393 33.1939689,26.5134274 C44.2013556,16.3533745 56.3596107,10.6549566 65.7907492,10.516484 C73.3869259,17.6123335 78.1322078,27.6977326 78.1322078,38.8865951 C78.1322078,58.5115982 63.5336612,74.7418691 44.5586692,77.4000992 L63.9263518,52.3230216 L40.9870432,22.6214472 L37.6455183,26.9480184 L57.243302,52.3230216 L37.6455183,77.6980247 L37.6917575,77.7578947 C27.3529841,77.402 18.034857,73.0462929 11.2499947,66.1967634 Z M56.5603794,4.10007542 C47.0874793,5.32488612 36.5841769,10.0127587 27.1785982,18.0135217 L40.4866895,0.782345757 L39.8824633,2.66453526e-15 C45.8694952,0.122192268 51.5256921,1.58535097 56.5603794,4.10007542 Z" id="Combined-Shape" fill="url(#linearGradient-1)"></path>
                    <path d="M78.9208325,36.1370842 C80.1883758,28.7826956 80.1286703,17.4008097 77.0537912,13.5385855 C69.1917472,4.84448389 46.7451052,9.53977029 28.7936163,28.7903853 C10.8421274,48.0410002 4.8623859,67.7943725 16.70838,76.6149093 C20.8650774,79.5720533 29.4583552,80.2280828 35.6640652,79.1040913 C25.9806694,83.2344289 16.9941337,83.7503163 10.9715725,78.1341872 C-0.532018954,67.4069146 4.90539131,42.8794552 23.1163683,23.3505733 C41.3273452,3.82169148 68.2558704,-0.748444253 78.222579,9.66391822 C83.3152503,15.3139925 83.1090645,25.4333834 78.920834,36.1370801 Z" id="Combined-Shape" fill="#23AFA5" transform="translate(43.496632, 43.255888) rotate(-1.000000) translate(-43.496632, -43.255888) "></path>
                </g>
            </g>
        </g>
    </g>
</svg>