<?xml version="1.0" encoding="UTF-8"?>
<svg width="22px" height="22px" viewBox="0 0 22 22" version="1.1" xmlns="http://www.w3.org/2000/svg" xmlns:xlink="http://www.w3.org/1999/xlink">
    <!-- Generator: Sketch 50 (54983) - http://www.bohemiancoding.com/sketch -->
    <title>education-icon</title>
    <desc>Created with Sketch.</desc>
    <defs></defs>
    <g id="Page-1" stroke="none" stroke-width="1" fill="none" fill-rule="evenodd">
        <g id="Oleg-2nd-" transform="translate(-40.000000, -40.000000)" fill="#23AFA5">
            <g id="Education" transform="translate(40.000000, 40.000000)">
                <g id="education-icon">
                    <path d="M11,0 C4.93428571,0 0,4.93428571 0,11 C0,17.0657143 4.93428571,22 11,22 C17.0657143,22 22,17.0657143 22,11 C22,4.93428571 17.0657143,0 11,0 L11,0 Z M11.002098,20.1516307 C5.95540841,20.1516307 1.85256533,16.0487877 1.85256533,11.002098 C1.85256533,5.95540841 5.95540841,1.85256533 11.002098,1.85256533 C16.0487877,1.85256533 20.1516307,5.95540841 20.1516307,11.002098 C20.1516307,16.0487877 16.0487877,20.1516307 11.002098,20.1516307 L11.002098,20.1516307 Z" id="Shape"></path>
                    <path d="M11,4.71877551 C7.53836735,4.71877551 4.71877551,7.53836735 4.71877551,11 C4.71877551,14.4616327 7.53836735,17.2812245 11,17.2812245 C14.4616327,17.2812245 17.2812245,14.4616327 17.2812245,11 C17.2812245,7.53836735 14.4616327,4.71877551 11,4.71877551 L11,4.71877551 Z M10.9919016,15.4124623 C8.55512605,15.4124623 6.57134084,13.4286771 6.57134084,10.9919016 C6.57134084,8.55512605 8.55512605,6.57134084 10.9919016,6.57134084 C13.4286771,6.57134084 15.4124623,8.55512605 15.4124623,10.9919016 C15.4124623,13.4286771 13.4286771,15.4124623 10.9919016,15.4124623 L10.9919016,15.4124623 Z" id="Shape"></path>
                    <circle id="Oval" cx="11" cy="11" r="1.6477551"></circle>
                </g>
            </g>
        </g>
    </g>
</svg>